<mxfile host="app.diagrams.net" modified="2024-02-10T10:06:19.013Z" agent="Mozilla/5.0 (Macintosh; Intel Mac OS X 10_15_7) AppleWebKit/537.36 (KHTML, like Gecko) Chrome/121.0.0.0 Safari/537.36" version="22.1.18" etag="cssGecygxU3w96Tg-yi-" type="github">
  <diagram name="Page-1" id="JAgj708lh-4g-M_-2WG4">
    <mxGraphModel>
      <root>
        <mxCell id="0" />
        <mxCell id="1" parent="0" />
      </root>
    </mxGraphModel>
  </diagram>
</mxfile>
